<svg version="1.1" id="Layer_1" xmlns="http://www.w3.org/2000/svg" xmlns:xlink="http://www.w3.org/1999/xlink" x="0px" y="0px"
	 width="100%" viewBox="0 0 3508 2481" enable-background="new 0 0 3508 2481" xml:space="preserve">
<path fill="#FFFFFF" opacity="1.000000" stroke="none" 
	d="
M2240.000000,2484.000000 
	C1493.333496,2484.000000 747.666931,2484.000000 2.000300,2484.000000 
	C2.000200,1656.666992 2.000200,829.333923 2.000100,2.000633 
	C1171.332886,2.000422 2340.665771,2.000422 3509.999023,2.000211 
	C3509.999268,829.332703 3509.999268,1656.665405 3509.999512,2483.999023 
	C3087.000000,2484.000000 2664.000000,2484.000000 2240.000000,2484.000000 
M1562.048584,1276.973755 
	C1580.012817,1290.421631 1600.221313,1296.969849 1622.653442,1296.820068 
	C1635.319092,1296.735474 1647.985962,1296.766602 1660.651733,1296.842041 
	C1663.528687,1296.859131 1666.403198,1297.274780 1669.805176,1297.549438 
	C1669.984497,1301.481812 1670.260742,1304.748535 1670.263062,1308.015503 
	C1670.292358,1351.347290 1670.192017,1394.679321 1670.376831,1438.010376 
	C1670.406494,1444.957397 1670.943237,1452.063965 1672.479248,1458.816040 
	C1680.963379,1496.109497 1716.723145,1522.263794 1754.025146,1520.557861 
	C1790.973145,1518.868164 1826.356689,1486.246826 1828.137573,1448.150146 
	C1829.132446,1426.867065 1828.958618,1405.503418 1828.471680,1384.195312 
	C1828.350464,1378.894531 1825.904297,1373.050537 1822.906250,1368.531250 
	C1815.858032,1357.906128 1802.834473,1353.797974 1791.218872,1357.374756 
	C1778.974121,1361.145264 1770.723633,1371.651489 1770.312378,1384.924927 
	C1769.951416,1396.580200 1770.220825,1408.255005 1770.206665,1419.921143 
	C1770.197632,1427.254150 1770.583618,1434.614868 1770.083496,1441.914551 
	C1768.935059,1458.675537 1751.403564,1467.643799 1738.106689,1458.404663 
	C1731.202515,1453.607178 1728.958862,1446.607056 1728.975830,1438.421021 
	C1729.067383,1394.089600 1729.003662,1349.757690 1729.060913,1305.426025 
	C1729.064209,1302.881592 1729.661743,1300.338013 1730.106689,1296.810791 
	C1734.265625,1296.810791 1737.855957,1296.810913 1741.446167,1296.810913 
	C1778.444824,1296.810425 1815.443481,1296.863770 1852.442017,1296.786133 
	C1870.483032,1296.748291 1888.361938,1295.252319 1905.863770,1290.425659 
	C2038.726807,1253.785034 2088.589111,1093.596313 1999.646484,988.443665 
	C1923.282715,898.162415 1782.248291,901.178467 1709.965576,994.718323 
	C1683.550659,1028.901489 1670.433716,1067.623169 1670.311401,1110.746582 
	C1670.201660,1149.411499 1670.284546,1188.076904 1670.282471,1226.742188 
	C1670.282227,1230.272705 1670.282593,1233.803101 1670.282593,1238.365967 
	C1626.090698,1238.365967 1583.259644,1238.365967 1538.647827,1238.365967 
	C1540.567505,1245.093506 1540.959229,1251.130615 1543.844604,1255.533447 
	C1548.698486,1262.939575 1555.136597,1269.307373 1562.048584,1276.973755 
M2363.000000,1414.113281 
	C2397.315430,1414.084595 2431.631104,1414.131348 2465.946289,1414.002930 
	C2492.003906,1413.905396 2517.821777,1411.004272 2543.310791,1405.788940 
	C2597.518066,1394.697388 2638.002197,1364.717041 2664.008545,1315.852783 
	C2679.374023,1286.982544 2687.669189,1255.946655 2690.384766,1223.314819 
	C2694.953857,1168.411621 2685.393799,1116.392090 2658.431641,1068.153931 
	C2628.649414,1014.869934 2584.786133,978.629578 2525.811035,961.412903 
	C2500.384766,953.990112 2474.345703,950.554321 2447.918701,950.471497 
	C2368.628906,950.223022 2289.338135,950.188660 2210.047852,950.116760 
	C2207.853760,950.114807 2205.658936,950.635681 2203.690186,950.884338 
	C2202.233398,956.052795 2204.569824,957.260742 2208.603760,957.831726 
	C2215.833984,958.855347 2223.165771,959.791138 2230.149170,961.817444 
	C2252.244385,968.228638 2266.326416,982.676331 2270.409180,1005.516479 
	C2272.509033,1017.263855 2273.939453,1029.305664 2273.975586,1041.219604 
	C2274.258789,1135.168091 2274.190674,1229.118042 2274.040771,1323.067139 
	C2274.025879,1332.361938 2273.087402,1341.695923 2271.982178,1350.940674 
	C2268.141602,1383.067505 2247.471680,1401.027466 2221.551270,1404.968872 
	C2216.951172,1405.668457 2212.310547,1406.111694 2207.682861,1406.619019 
	C2203.044922,1407.127808 2202.538574,1409.671875 2203.917480,1414.113403 
	C2256.500732,1414.113403 2308.750488,1414.113403 2363.000000,1414.113281 
M988.878296,1152.999878 
	C988.878296,1237.524048 988.878296,1322.048340 988.878296,1406.809082 
	C1013.433289,1406.809082 1036.538696,1406.809082 1060.581055,1406.809082 
	C1060.581055,1342.217041 1060.581055,1278.365479 1060.581055,1214.541870 
	C1074.419312,1214.541870 1087.418701,1213.495728 1100.169312,1214.828735 
	C1113.576660,1216.230469 1122.318726,1224.823975 1126.082764,1237.981201 
	C1126.904663,1240.853760 1127.858643,1243.770996 1128.079712,1246.718140 
	C1128.851074,1256.995239 1129.741699,1267.290527 1129.839844,1277.586060 
	C1130.148071,1309.906616 1129.894043,1342.233521 1130.337524,1374.551270 
	C1130.491089,1385.739380 1131.518188,1397.029907 1137.044556,1407.029541 
	C1160.870972,1407.029541 1184.078979,1407.029541 1207.735474,1407.029541 
	C1207.585571,1405.201416 1207.749634,1403.839233 1207.336426,1402.683472 
	C1202.784546,1389.946289 1201.592529,1376.745361 1201.599243,1363.342041 
	C1201.614136,1333.351196 1201.924072,1303.353638 1201.364136,1273.372681 
	C1201.103882,1259.439941 1200.037842,1245.377319 1197.672363,1231.660645 
	C1193.498535,1207.457397 1182.366211,1187.710449 1158.037476,1178.060059 
	C1157.249390,1177.747437 1156.657471,1176.939819 1154.789062,1175.362915 
	C1156.119263,1174.753540 1157.015625,1174.372070 1157.886963,1173.939941 
	C1182.507568,1161.727661 1195.195679,1140.771851 1197.971680,1114.506836 
	C1200.272827,1092.735596 1199.906006,1070.656494 1200.148804,1048.707397 
	C1200.236572,1040.776855 1199.208008,1032.725342 1197.741211,1024.906738 
	C1193.475708,1002.169800 1183.704102,982.594971 1163.615723,969.562378 
	C1148.114380,959.505615 1130.751221,954.569702 1112.567871,954.174194 
	C1072.935669,953.312073 1033.282593,953.406677 993.637756,953.157654 
	C992.390259,953.149841 991.139465,953.661804 988.879517,954.149475 
	C988.879517,1019.893494 988.879517,1085.446655 988.878296,1152.999878 
M1248.267822,963.442932 
	C1248.268188,1074.431641 1248.140869,1185.420776 1248.438354,1296.408569 
	C1248.473755,1309.647461 1249.606812,1323.135864 1252.326416,1336.067993 
	C1260.823486,1376.471436 1284.861084,1402.208862 1326.088989,1410.592651 
	C1346.299683,1414.702515 1366.479614,1414.556885 1386.575684,1410.015259 
	C1420.624756,1402.320190 1443.219116,1381.875122 1454.246826,1348.713135 
	C1459.344238,1333.384521 1461.479004,1317.535156 1461.497314,1301.492432 
	C1461.626221,1188.171021 1461.579712,1074.849243 1461.548950,961.527527 
	C1461.548218,959.002502 1461.071289,956.477600 1460.836914,954.155518 
	C1448.269775,952.191956 1399.712402,952.669617 1392.283691,954.858826 
	C1392.283691,958.339905 1392.283813,961.983215 1392.283813,965.626587 
	C1392.283203,1077.615112 1392.333130,1189.603638 1392.173584,1301.591919 
	C1392.162354,1309.511475 1391.467773,1317.640259 1389.583496,1325.301025 
	C1386.233887,1338.919556 1376.399780,1346.589478 1362.363525,1347.953857 
	C1359.059570,1348.274902 1355.697510,1348.238281 1352.374878,1348.085938 
	C1336.152954,1347.342896 1325.357178,1338.672485 1322.095581,1322.772461 
	C1320.570679,1315.338745 1320.048096,1307.582886 1320.039551,1299.972046 
	C1319.914429,1188.650269 1319.953125,1077.328369 1319.952759,966.006409 
	C1319.952759,962.071960 1319.952637,958.137573 1319.952637,954.381775 
	C1309.147583,952.299927 1255.942993,952.629822 1248.267578,954.801575 
	C1248.267578,956.954712 1248.267578,959.264282 1248.267822,963.442932 
M754.264160,1047.642456 
	C754.495605,1058.138672 754.727112,1068.634888 754.956970,1079.055420 
	C777.877991,1079.055420 799.432800,1079.055420 821.718201,1079.055420 
	C823.213745,1051.138306 822.379700,1024.123657 810.806274,998.502686 
	C799.352051,973.145874 779.854065,957.238220 753.086426,950.298767 
	C732.446716,944.947876 711.505615,944.546509 690.648254,948.694824 
	C652.852295,956.212158 627.623291,978.304443 617.767395,1015.735596 
	C604.497986,1066.130615 611.814575,1113.177612 645.832581,1153.909912 
	C659.443848,1170.207642 675.000488,1184.963623 690.388916,1199.671021 
	C706.048767,1214.637695 722.555664,1228.720459 735.014587,1246.688110 
	C750.884949,1269.575317 755.587891,1294.839966 749.985291,1321.877075 
	C746.473267,1338.825684 735.407837,1347.445923 718.199219,1348.143066 
	C694.796143,1349.091064 682.521851,1339.372437 679.420715,1316.088501 
	C678.022156,1305.588135 678.508057,1294.833984 678.199036,1284.193115 
	C678.096924,1280.677246 678.182861,1277.155884 678.182861,1273.569336 
	C654.888428,1273.569336 633.072632,1273.569336 610.789001,1273.569336 
	C610.006897,1299.590332 609.859619,1324.809692 617.845703,1349.317871 
	C628.302979,1381.409424 649.867676,1401.735962 682.663330,1409.656860 
	C703.667847,1414.729858 724.840027,1414.774536 746.070801,1410.315674 
	C782.340027,1402.698608 806.948425,1381.331909 816.772827,1345.932861 
	C832.015320,1291.011719 824.573425,1239.706299 787.083313,1194.628418 
	C771.236755,1175.574585 752.345947,1159.703613 734.547974,1142.658325 
	C722.325500,1130.952759 710.532776,1118.547607 700.199158,1105.178955 
	C684.220337,1084.506958 680.036316,1060.594238 685.944092,1035.152100 
	C688.438110,1024.411377 694.613708,1016.020752 705.714905,1013.345398 
	C731.873291,1007.041199 749.221924,1015.786011 753.609680,1040.851196 
	C753.896240,1042.488159 753.983215,1044.160034 754.264160,1047.642456 
M2823.429688,1087.000000 
	C2823.282471,1042.689819 2823.135986,998.379761 2822.962158,954.069763 
	C2822.961182,953.808350 2822.585205,953.536377 2822.360352,953.291504 
	C2822.143311,953.054993 2821.894531,952.847534 2821.816162,952.774048 
	C2798.157959,952.774048 2774.662109,952.774048 2750.833008,952.774048 
	C2750.833008,1106.620850 2750.833008,1259.764771 2750.833008,1413.423584 
	C2775.076416,1413.423584 2798.801514,1413.423584 2823.429199,1413.423584 
	C2823.429199,1304.817993 2823.429199,1196.909058 2823.429688,1087.000000 
M2097.299561,952.085754 
	C2094.401367,952.274353 2091.503174,952.462952 2088.448242,952.661804 
	C2088.448242,1106.675537 2088.448242,1260.028076 2088.448242,1414.094360 
	C2112.632080,1414.061279 2136.069092,1414.229736 2159.510742,1413.990112 
	C2159.510742,1259.385986 2159.510742,1106.272339 2159.510742,952.085815 
	C2139.044922,952.085815 2119.144775,952.085815 2097.299561,952.085754 
M936.309204,1147.000000 
	C936.309204,1082.826538 936.309204,1018.653015 936.309204,954.146484 
	C912.012695,954.146484 888.925598,954.146484 865.950378,954.146484 
	C863.840576,967.709290 864.515686,1399.951782 866.596924,1407.011475 
	C889.416504,1407.011475 912.278442,1407.011475 936.309509,1407.011475 
	C936.309509,1320.651978 936.309509,1234.826050 936.309204,1147.000000 
z"/>
<path fill="#78C351" opacity="1.000000" stroke="none" 
	d="
M1561.478516,1276.542847 
	C1555.136597,1269.307373 1548.698486,1262.939575 1543.844604,1255.533447 
	C1540.959229,1251.130615 1540.567505,1245.093506 1538.647827,1238.365967 
	C1583.259644,1238.365967 1626.090698,1238.365967 1670.282593,1238.365967 
	C1670.282593,1233.803101 1670.282227,1230.272705 1670.282471,1226.742188 
	C1670.284546,1188.076904 1670.201660,1149.411499 1670.311401,1110.746582 
	C1670.433716,1067.623169 1683.550659,1028.901489 1709.965576,994.718323 
	C1782.248291,901.178467 1923.282715,898.162415 1999.646484,988.443665 
	C2088.589111,1093.596313 2038.726807,1253.785034 1905.863770,1290.425659 
	C1888.361938,1295.252319 1870.483032,1296.748291 1852.442017,1296.786133 
	C1815.443481,1296.863770 1778.444824,1296.810425 1741.446167,1296.810913 
	C1737.855957,1296.810913 1734.265625,1296.810791 1730.106689,1296.810791 
	C1729.661743,1300.338013 1729.064209,1302.881592 1729.060913,1305.426025 
	C1729.003662,1349.757690 1729.067383,1394.089600 1728.975830,1438.421021 
	C1728.958862,1446.607056 1731.202515,1453.607178 1738.106689,1458.404663 
	C1751.403564,1467.643799 1768.935059,1458.675537 1770.083496,1441.914551 
	C1770.583618,1434.614868 1770.197632,1427.254150 1770.206665,1419.921143 
	C1770.220825,1408.255005 1769.951416,1396.580200 1770.312378,1384.924927 
	C1770.723633,1371.651489 1778.974121,1361.145264 1791.218872,1357.374756 
	C1802.834473,1353.797974 1815.858032,1357.906128 1822.906250,1368.531250 
	C1825.904297,1373.050537 1828.350464,1378.894531 1828.471680,1384.195312 
	C1828.958618,1405.503418 1829.132446,1426.867065 1828.137573,1448.150146 
	C1826.356689,1486.246826 1790.973145,1518.868164 1754.025146,1520.557861 
	C1716.723145,1522.263794 1680.963379,1496.109497 1672.479248,1458.816040 
	C1670.943237,1452.063965 1670.406494,1444.957397 1670.376831,1438.010376 
	C1670.192017,1394.679321 1670.292358,1351.347290 1670.263062,1308.015503 
	C1670.260742,1304.748535 1669.984497,1301.481812 1669.805176,1297.549438 
	C1666.403198,1297.274780 1663.528687,1296.859131 1660.651733,1296.842041 
	C1647.985962,1296.766602 1635.319092,1296.735474 1622.653442,1296.820068 
	C1600.221313,1296.969849 1580.012817,1290.421631 1561.478516,1276.542847 
M1946.139771,1203.160889 
	C1977.913696,1171.666992 1990.551514,1133.786621 1984.320435,1089.486694 
	C1975.284546,1025.245483 1914.857544,971.065857 1837.776978,982.703430 
	C1774.253296,992.294189 1729.216187,1045.766235 1728.608154,1110.209229 
	C1728.231079,1150.172363 1728.517334,1190.142090 1728.565552,1230.108765 
	C1728.568604,1232.624146 1729.091187,1235.139038 1729.385986,1237.779907 
	C1732.486450,1237.939575 1734.795410,1238.161499 1737.104370,1238.162231 
	C1778.070312,1238.174927 1819.038330,1238.419800 1860.001343,1238.070190 
	C1892.632568,1237.791748 1921.134888,1226.455811 1946.139771,1203.160889 
z"/>
<path fill="#78C351" opacity="1.000000" stroke="none" 
	d="
M2362.000000,1414.113281 
	C2308.750488,1414.113403 2256.500732,1414.113403 2203.917480,1414.113403 
	C2202.538574,1409.671875 2203.044922,1407.127808 2207.682861,1406.619019 
	C2212.310547,1406.111694 2216.951172,1405.668457 2221.551270,1404.968872 
	C2247.471680,1401.027466 2268.141602,1383.067505 2271.982178,1350.940674 
	C2273.087402,1341.695923 2274.025879,1332.361938 2274.040771,1323.067139 
	C2274.190674,1229.118042 2274.258789,1135.168091 2273.975586,1041.219604 
	C2273.939453,1029.305664 2272.509033,1017.263855 2270.409180,1005.516479 
	C2266.326416,982.676331 2252.244385,968.228638 2230.149170,961.817444 
	C2223.165771,959.791138 2215.833984,958.855347 2208.603760,957.831726 
	C2204.569824,957.260742 2202.233398,956.052795 2203.690186,950.884338 
	C2205.658936,950.635681 2207.853760,950.114807 2210.047852,950.116760 
	C2289.338135,950.188660 2368.628906,950.223022 2447.918701,950.471497 
	C2474.345703,950.554321 2500.384766,953.990112 2525.811035,961.412903 
	C2584.786133,978.629578 2628.649414,1014.869934 2658.431641,1068.153931 
	C2685.393799,1116.392090 2694.953857,1168.411621 2690.384766,1223.314819 
	C2687.669189,1255.946655 2679.374023,1286.982544 2664.008545,1315.852783 
	C2638.002197,1364.717041 2597.518066,1394.697388 2543.310791,1405.788940 
	C2517.821777,1411.004272 2492.003906,1413.905396 2465.946289,1414.002930 
	C2431.631104,1414.131348 2397.315430,1414.084595 2362.000000,1414.113281 
M2348.666748,1095.000000 
	C2348.666748,1158.323730 2348.433350,1221.648682 2348.804688,1284.970215 
	C2348.919678,1304.586182 2349.553467,1324.330200 2351.937744,1343.771729 
	C2355.802734,1375.286865 2374.284180,1394.720459 2405.164795,1402.433105 
	C2426.565430,1407.777954 2448.160400,1406.968994 2469.689453,1403.776367 
	C2498.846191,1399.452393 2524.382568,1387.570068 2545.383301,1366.421509 
	C2570.857666,1340.767944 2587.797852,1310.217285 2598.034912,1275.778320 
	C2607.728516,1243.167358 2610.548340,1209.839233 2608.282227,1175.962402 
	C2605.410645,1133.038940 2594.175293,1092.615112 2571.766113,1055.741211 
	C2548.416260,1017.320374 2517.081055,987.766785 2473.947021,972.714966 
	C2433.764404,958.692871 2392.045898,960.637939 2348.678711,962.505249 
	C2348.654053,1005.936890 2348.670654,1049.468628 2348.666748,1095.000000 
z"/>
<path fill="#4A75B9" opacity="1.000000" stroke="none" 
	d="
M988.878906,1151.999756 
	C988.879517,1085.446655 988.879517,1019.893494 988.879517,954.149475 
	C991.139465,953.661804 992.390259,953.149841 993.637756,953.157654 
	C1033.282593,953.406677 1072.935669,953.312073 1112.567871,954.174194 
	C1130.751221,954.569702 1148.114380,959.505615 1163.615723,969.562378 
	C1183.704102,982.594971 1193.475708,1002.169800 1197.741211,1024.906738 
	C1199.208008,1032.725342 1200.236572,1040.776855 1200.148804,1048.707397 
	C1199.906006,1070.656494 1200.272827,1092.735596 1197.971680,1114.506836 
	C1195.195679,1140.771851 1182.507568,1161.727661 1157.886963,1173.939941 
	C1157.015625,1174.372070 1156.119263,1174.753540 1154.789062,1175.362915 
	C1156.657471,1176.939819 1157.249390,1177.747437 1158.037476,1178.060059 
	C1182.366211,1187.710449 1193.498535,1207.457397 1197.672363,1231.660645 
	C1200.037842,1245.377319 1201.103882,1259.439941 1201.364136,1273.372681 
	C1201.924072,1303.353638 1201.614136,1333.351196 1201.599243,1363.342041 
	C1201.592529,1376.745361 1202.784546,1389.946289 1207.336426,1402.683472 
	C1207.749634,1403.839233 1207.585571,1405.201416 1207.735474,1407.029541 
	C1184.078979,1407.029541 1160.870972,1407.029541 1137.044556,1407.029541 
	C1131.518188,1397.029907 1130.491089,1385.739380 1130.337524,1374.551270 
	C1129.894043,1342.233521 1130.148071,1309.906616 1129.839844,1277.586060 
	C1129.741699,1267.290527 1128.851074,1256.995239 1128.079712,1246.718140 
	C1127.858643,1243.770996 1126.904663,1240.853760 1126.082764,1237.981201 
	C1122.318726,1224.823975 1113.576660,1216.230469 1100.169312,1214.828735 
	C1087.418701,1213.495728 1074.419312,1214.541870 1060.581055,1214.541870 
	C1060.581055,1278.365479 1060.581055,1342.217041 1060.581055,1406.809082 
	C1036.538696,1406.809082 1013.433289,1406.809082 988.878296,1406.809082 
	C988.878296,1322.048340 988.878296,1237.524048 988.878906,1151.999756 
M1092.322388,1148.037354 
	C1116.032227,1146.424316 1125.372925,1132.816040 1127.566162,1117.576904 
	C1130.991943,1093.773193 1130.883057,1069.738159 1127.507080,1045.926025 
	C1125.328247,1030.557983 1116.287842,1020.665710 1101.959839,1019.132507 
	C1088.579346,1017.700806 1074.925171,1018.826416 1060.974365,1018.826416 
	C1060.974365,1061.952393 1060.974365,1104.674194 1060.974365,1148.105713 
	C1071.252930,1148.105713 1080.860474,1148.105713 1092.322388,1148.037354 
z"/>
<path fill="#4C76B9" opacity="1.000000" stroke="none" 
	d="
M1248.267700,962.508362 
	C1248.267578,959.264282 1248.267578,956.954712 1248.267578,954.801575 
	C1255.942993,952.629822 1309.147583,952.299927 1319.952637,954.381775 
	C1319.952637,958.137573 1319.952759,962.071960 1319.952759,966.006409 
	C1319.953125,1077.328369 1319.914429,1188.650269 1320.039551,1299.972046 
	C1320.048096,1307.582886 1320.570679,1315.338745 1322.095581,1322.772461 
	C1325.357178,1338.672485 1336.152954,1347.342896 1352.374878,1348.085938 
	C1355.697510,1348.238281 1359.059570,1348.274902 1362.363525,1347.953857 
	C1376.399780,1346.589478 1386.233887,1338.919556 1389.583496,1325.301025 
	C1391.467773,1317.640259 1392.162354,1309.511475 1392.173584,1301.591919 
	C1392.333130,1189.603638 1392.283203,1077.615112 1392.283813,965.626587 
	C1392.283813,961.983215 1392.283691,958.339905 1392.283691,954.858826 
	C1399.712402,952.669617 1448.269775,952.191956 1460.836914,954.155518 
	C1461.071289,956.477600 1461.548218,959.002502 1461.548950,961.527527 
	C1461.579712,1074.849243 1461.626221,1188.171021 1461.497314,1301.492432 
	C1461.479004,1317.535156 1459.344238,1333.384521 1454.246826,1348.713135 
	C1443.219116,1381.875122 1420.624756,1402.320190 1386.575684,1410.015259 
	C1366.479614,1414.556885 1346.299683,1414.702515 1326.088989,1410.592651 
	C1284.861084,1402.208862 1260.823486,1376.471436 1252.326416,1336.067993 
	C1249.606812,1323.135864 1248.473755,1309.647461 1248.438354,1296.408569 
	C1248.140869,1185.420776 1248.268188,1074.431641 1248.267700,962.508362 
z"/>
<path fill="#4B75B9" opacity="1.000000" stroke="none" 
	d="
M754.213623,1046.729004 
	C753.983215,1044.160034 753.896240,1042.488159 753.609680,1040.851196 
	C749.221924,1015.786011 731.873291,1007.041199 705.714905,1013.345398 
	C694.613708,1016.020752 688.438110,1024.411377 685.944092,1035.152100 
	C680.036316,1060.594238 684.220337,1084.506958 700.199158,1105.178955 
	C710.532776,1118.547607 722.325500,1130.952759 734.547974,1142.658325 
	C752.345947,1159.703613 771.236755,1175.574585 787.083313,1194.628418 
	C824.573425,1239.706299 832.015320,1291.011719 816.772827,1345.932861 
	C806.948425,1381.331909 782.340027,1402.698608 746.070801,1410.315674 
	C724.840027,1414.774536 703.667847,1414.729858 682.663330,1409.656860 
	C649.867676,1401.735962 628.302979,1381.409424 617.845703,1349.317871 
	C609.859619,1324.809692 610.006897,1299.590332 610.789001,1273.569336 
	C633.072632,1273.569336 654.888428,1273.569336 678.182861,1273.569336 
	C678.182861,1277.155884 678.096924,1280.677246 678.199036,1284.193115 
	C678.508057,1294.833984 678.022156,1305.588135 679.420715,1316.088501 
	C682.521851,1339.372437 694.796143,1349.091064 718.199219,1348.143066 
	C735.407837,1347.445923 746.473267,1338.825684 749.985291,1321.877075 
	C755.587891,1294.839966 750.884949,1269.575317 735.014587,1246.688110 
	C722.555664,1228.720459 706.048767,1214.637695 690.388916,1199.671021 
	C675.000488,1184.963623 659.443848,1170.207642 645.832581,1153.909912 
	C611.814575,1113.177612 604.497986,1066.130615 617.767395,1015.735596 
	C627.623291,978.304443 652.852295,956.212158 690.648254,948.694824 
	C711.505615,944.546509 732.446716,944.947876 753.086426,950.298767 
	C779.854065,957.238220 799.352051,973.145874 810.806274,998.502686 
	C822.379700,1024.123657 823.213745,1051.138306 821.718201,1079.055420 
	C799.432800,1079.055420 777.877991,1079.055420 754.956970,1079.055420 
	C754.727112,1068.634888 754.495605,1058.138672 754.213623,1046.729004 
z"/>
<path fill="#79C453" opacity="1.000000" stroke="none" 
	d="
M2823.429443,1088.000000 
	C2823.429199,1196.909058 2823.429199,1304.817993 2823.429199,1413.423584 
	C2798.801514,1413.423584 2775.076416,1413.423584 2750.833008,1413.423584 
	C2750.833008,1259.764771 2750.833008,1106.620850 2750.833008,952.774048 
	C2774.662109,952.774048 2798.157959,952.774048 2821.816162,952.774048 
	C2821.894531,952.847534 2822.143311,953.054993 2822.360352,953.291504 
	C2822.585205,953.536377 2822.961182,953.808350 2822.962158,954.069763 
	C2823.135986,998.379761 2823.282471,1042.689819 2823.429443,1088.000000 
z"/>
<path fill="#77C350" opacity="1.000000" stroke="none" 
	d="
M2098.271973,952.085815 
	C2119.144775,952.085815 2139.044922,952.085815 2159.510742,952.085815 
	C2159.510742,1106.272339 2159.510742,1259.385986 2159.510742,1413.990112 
	C2136.069092,1414.229736 2112.632080,1414.061279 2088.448242,1414.094360 
	C2088.448242,1260.028076 2088.448242,1106.675537 2088.448242,952.661804 
	C2091.503174,952.462952 2094.401367,952.274353 2098.271973,952.085815 
z"/>
<path fill="#4974B9" opacity="1.000000" stroke="none" 
	d="
M936.309326,1148.000000 
	C936.309509,1234.826050 936.309509,1320.651978 936.309509,1407.011475 
	C912.278442,1407.011475 889.416504,1407.011475 866.596924,1407.011475 
	C864.515686,1399.951782 863.840576,967.709290 865.950378,954.146484 
	C888.925598,954.146484 912.012695,954.146484 936.309204,954.146484 
	C936.309204,1018.653015 936.309204,1082.826538 936.309326,1148.000000 
z"/>
<path fill="#FEFFFE" opacity="1.000000" stroke="none" 
	d="
M1945.637085,1203.660767 
	C1921.134888,1226.455811 1892.632568,1237.791748 1860.001343,1238.070190 
	C1819.038330,1238.419800 1778.070312,1238.174927 1737.104370,1238.162231 
	C1734.795410,1238.161499 1732.486450,1237.939575 1729.385986,1237.779907 
	C1729.091187,1235.139038 1728.568604,1232.624146 1728.565552,1230.108765 
	C1728.517334,1190.142090 1728.231079,1150.172363 1728.608154,1110.209229 
	C1729.216187,1045.766235 1774.253296,992.294189 1837.776978,982.703430 
	C1914.857544,971.065857 1975.284546,1025.245483 1984.320435,1089.486694 
	C1990.551514,1133.786621 1977.913696,1171.666992 1945.637085,1203.660767 
M1815.082764,1049.720581 
	C1812.119141,1051.189087 1808.887695,1052.285889 1806.239868,1054.192871 
	C1796.781372,1061.005127 1792.890747,1073.997192 1796.527588,1085.535400 
	C1799.801636,1095.922607 1810.194092,1103.650879 1821.414795,1104.042480 
	C1833.944946,1104.479736 1844.618408,1097.574707 1848.851929,1086.293091 
	C1856.620239,1065.591919 1839.803589,1046.308716 1815.082764,1049.720581 
z"/>
<path fill="#FEFFFE" opacity="1.000000" stroke="none" 
	d="
M2348.666992,1094.000000 
	C2348.670654,1049.468628 2348.654053,1005.936890 2348.678711,962.505249 
	C2392.045898,960.637939 2433.764404,958.692871 2473.947021,972.714966 
	C2517.081055,987.766785 2548.416260,1017.320374 2571.766113,1055.741211 
	C2594.175293,1092.615112 2605.410645,1133.038940 2608.282227,1175.962402 
	C2610.548340,1209.839233 2607.728516,1243.167358 2598.034912,1275.778320 
	C2587.797852,1310.217285 2570.857666,1340.767944 2545.383301,1366.421509 
	C2524.382568,1387.570068 2498.846191,1399.452393 2469.689453,1403.776367 
	C2448.160400,1406.968994 2426.565430,1407.777954 2405.164795,1402.433105 
	C2374.284180,1394.720459 2355.802734,1375.286865 2351.937744,1343.771729 
	C2349.553467,1324.330200 2348.919678,1304.586182 2348.804688,1284.970215 
	C2348.433350,1221.648682 2348.666748,1158.323730 2348.666992,1094.000000 
z"/>
<path fill="#FCFDFE" opacity="1.000000" stroke="none" 
	d="
M1091.395264,1148.071533 
	C1080.860474,1148.105713 1071.252930,1148.105713 1060.974365,1148.105713 
	C1060.974365,1104.674194 1060.974365,1061.952393 1060.974365,1018.826416 
	C1074.925171,1018.826416 1088.579346,1017.700806 1101.959839,1019.132507 
	C1116.287842,1020.665710 1125.328247,1030.557983 1127.507080,1045.926025 
	C1130.883057,1069.738159 1130.991943,1093.773193 1127.566162,1117.576904 
	C1125.372925,1132.816040 1116.032227,1146.424316 1091.395264,1148.071533 
z"/>
<path fill="#79C453" opacity="1.000000" stroke="none" 
	d="
M1815.836182,1049.509521 
	C1839.803589,1046.308716 1856.620239,1065.591919 1848.851929,1086.293091 
	C1844.618408,1097.574707 1833.944946,1104.479736 1821.414795,1104.042480 
	C1810.194092,1103.650879 1799.801636,1095.922607 1796.527588,1085.535400 
	C1792.890747,1073.997192 1796.781372,1061.005127 1806.239868,1054.192871 
	C1808.887695,1052.285889 1812.119141,1051.189087 1815.836182,1049.509521 
z"/>
</svg>